<?xml version="1.0" encoding="UTF-8"?> <svg xmlns="http://www.w3.org/2000/svg" id="Layer_1" data-name="Layer 1" viewBox="0 0 179.24 156.83"> <defs> <style>.cls-1{fill:#cad85f;}.cls-1,.cls-2{fill-rule:evenodd;}.cls-2,.cls-3{fill:#2a364a;}.cls-3{font-size:48px;font-family:Montserrat-Black, Montserrat Black;font-weight:800;}.cls-4{letter-spacing:-0.02em;}.cls-5{letter-spacing:0em;}</style> </defs> <title>Arkada pl_vse ua</title> <path class="cls-1" d="M88.54,71.85V116A51.43,51.43,0,0,0,114,122.75a46,46,0,0,0,13-1.87s0-10,0-17.75c0-4.94-.05-9-.05-9.19A27.59,27.59,0,0,1,114,97.23,25.46,25.46,0,0,1,88.54,71.85Z" transform="translate(-63.03 -20.9)"></path> <path class="cls-1" d="M63,71.67v0H88.54V116c-14.68-8.32-25-23.6-25.51-41.3Z" transform="translate(-63.03 -20.9)"></path> <path class="cls-2" d="M165.1,72.13a25.45,25.45,0,0,1,50.9,0l-.09,3.24.09,3.25v44.31h25.34V72.13a46.72,46.72,0,0,0-.28-5.22c-2.74-25.61-25.93-45.73-50.53-45.73C163,21.5,139.72,44.05,141,72.31Z" transform="translate(-63.03 -20.9)"></path> <path class="cls-1" d="M88.52,71.85a25.58,25.58,0,0,1,51.15.09v50.67h25.25V71.85l-.28-5.21C161.81,41,138.76,20.9,114.16,20.9c-28.08,0-51.87,22.87-50.95,50.95Z" transform="translate(-63.03 -20.9)"></path> <text class="cls-3" transform="translate(10.86 143.87)">ВІ<tspan class="cls-4" x="52.75" y="0">К</tspan><tspan class="cls-5" x="88.51" y="0">НА</tspan></text> </svg> 