<?xml version="1.0" encoding="UTF-8"?> <svg xmlns="http://www.w3.org/2000/svg" id="Layer_1" data-name="Layer 1" viewBox="0 0 178.31 156.73"> <defs> <style>.cls-1{fill:#cad85f;fill-rule:evenodd;}.cls-2,.cls-3{isolation:isolate;font-size:48px;fill:#fff;font-family:Montserrat-ExtraBold, Montserrat ExtraBold;font-weight:800;}.cls-3{letter-spacing:-0.02em;}</style> </defs> <title>sdlogofooter</title> <path class="cls-1" d="M25.54,51V95.1A51.44,51.44,0,0,0,51,101.85,46.1,46.1,0,0,0,64,100V73a27.57,27.57,0,0,1-13,3.29A25.46,25.46,0,0,1,25.54,51Z" transform="translate(-0.03)"></path> <path class="cls-1" d="M0,50.77H25.54V95.1C10.86,86.78.54,71.5,0,53.8Z" transform="translate(-0.03)"></path> <path class="cls-1" d="M102.1,51.23a25.45,25.45,0,0,1,50.9,0l-.09,3.24.09,3.25V102h25.34V51.23A48.13,48.13,0,0,0,178,46C175.32,20.4,152.13.28,127.53.28,100,.6,76.72,23.15,78,51.41Z" transform="translate(-0.03)"></path> <path class="cls-1" d="M25.52,51a25.58,25.58,0,0,1,51.15,0v50.67h25.25V51l-.28-5.21C98.81,20.1,75.76,0,51.16,0,23.08,0-.71,22.87.21,51Z" transform="translate(-0.03)"></path> <text class="cls-2" transform="translate(10.86 143.87)">ВІ</text> <text class="cls-3" transform="translate(63.61 143.87)">К</text> <text class="cls-2" transform="translate(99.37 143.87)">НА</text> </svg> 